<?xml version="1.0" standalone="no"?>
<!DOCTYPE svg PUBLIC "-//W3C//DTD SVG 20010904//EN" "http://www.w3.org/TR/2001/REC-SVG-20010904/DTD/svg10.dtd">
<svg version="1.0" xmlns="http://www.w3.org/2000/svg"
  width="1000.000000pt" height="1622.000000pt" viewBox="0 0 1000.000000 1622.000000"
  preserveAspectRatio="xMidYMid meet">

  <g transform="translate(0.000000,1622.000000) scale(0.100000,-0.100000)"
    fill="#fff" stroke="none">
    <path
      d="M4099 16187 c-53 -51 -117 -129 -228 -276 l-101 -134 1 -321 c0 -287
2 -326 18 -366 18 -42 21 -45 57 -45 36 0 39 2 50 40 16 50 17 110 4 155 -9
30 -5 46 28 123 l37 89 7 -44 c14 -82 12 -191 -5 -247 -9 -30 -20 -76 -23
-103 l-7 -48 56 0 c53 0 56 2 77 36 12 19 27 33 34 32 27 -9 216 -104 216
-109 0 -3 -24 -22 -52 -41 -52 -34 -54 -34 -98 -21 -24 7 -61 27 -82 43 l-37
30 -25 -48 -24 -48 23 -39 c13 -22 52 -60 87 -85 52 -39 65 -53 77 -93 14 -45
13 -54 -12 -160 -15 -62 -27 -123 -27 -136 0 -21 2 -22 16 -10 9 8 47 59 84
114 57 86 75 105 121 129 30 16 70 44 90 63 43 41 72 41 77 0 3 -25 1 -27 -36
-27 -57 0 -65 -15 -57 -103 l7 -74 -58 -33 c-31 -17 -81 -55 -111 -83 l-53
-50 0 -74 c0 -41 3 -73 8 -71 4 2 30 15 58 30 l50 27 52 -36 52 -36 -28 -17
c-15 -9 -65 -37 -112 -62 l-86 -46 -50 62 c-89 109 -162 226 -279 453 -32 62
-61 110 -66 107 -13 -8 -29 -76 -29 -126 l0 -48 -75 0 -76 0 -107 -96 c-89
-79 -207 -167 -298 -220 -26 -16 -16 -23 57 -40 81 -18 115 -31 159 -59 l35
-23 115 19 c153 24 153 24 173 -11 18 -29 20 -30 93 -30 85 0 81 7 58 -105 -9
-42 -13 -80 -9 -83 4 -4 46 -20 93 -37 l87 -30 9 -67 9 -67 103 -48 c57 -26
104 -53 104 -59 0 -6 -7 -17 -15 -24 -9 -7 -25 -26 -36 -41 -19 -27 -19 -28 2
-63 l21 -36 -36 -64 c-20 -35 -36 -70 -36 -78 1 -7 14 -29 30 -48 17 -19 30
-38 30 -42 0 -16 -41 -28 -131 -38 -109 -13 -391 -61 -563 -96 -100 -20 -148
-24 -303 -24 l-183 0 -80 40 -80 40 0 59 0 59 -133 33 -133 32 -42 57 c-51 70
-51 69 -13 325 l28 190 142 259 c77 143 140 260 139 262 -2 1 -69 -50 -149
-115 -81 -64 -294 -233 -474 -376 -345 -274 -392 -318 -665 -624 l-154 -174
-15 34 c-9 21 -16 81 -19 159 -4 119 -2 130 31 245 51 178 55 211 20 168 -7
-10 -68 -98 -133 -195 -109 -161 -125 -180 -170 -203 l-50 -25 -75 37 c-76 38
-76 38 -71 73 3 19 8 66 12 104 6 64 12 78 82 188 74 117 75 118 98 103 22
-14 28 -12 131 56 59 39 181 106 271 150 l163 81 220 22 220 23 168 166 c92
92 174 167 182 167 22 0 129 53 249 124 61 37 160 89 221 116 111 50 297 117
334 120 37 4 65 0 65 -9 0 -4 -25 -47 -56 -95 -56 -86 -61 -112 -17 -96 45 18
200 240 239 343 8 21 -3 21 -113 6 -65 -9 -120 -29 -338 -126 -329 -146 -527
-242 -685 -334 -74 -43 -194 -100 -295 -140 -306 -120 -486 -199 -735 -320
l-245 -120 -109 -121 -109 -120 -58 -202 c-161 -564 -251 -913 -299 -1166 -28
-146 -63 -299 -77 -340 -14 -41 -68 -160 -120 -264 -52 -103 -93 -189 -91
-191 2 -2 49 14 106 35 l103 38 31 -39 c18 -22 35 -38 38 -37 12 6 270 297
270 305 0 5 43 51 95 103 l95 95 1 130 1 130 41 94 42 95 85 17 c120 23 320
77 572 154 l218 65 77 -48 c75 -46 78 -49 81 -89 l3 -42 -100 -51 c-56 -27
-101 -52 -101 -54 0 -2 34 -25 75 -51 76 -47 87 -63 60 -85 -11 -9 -31 -9 -84
-1 -111 17 -109 18 -113 -36 -3 -42 -6 -47 -33 -56 -46 -15 -86 -45 -216 -163
-117 -105 -119 -108 -119 -150 0 -41 -3 -46 -82 -114 -96 -83 -159 -123 -181
-114 -22 8 -36 53 -49 161 l-11 94 -36 -3 c-30 -3 -41 -11 -81 -68 -132 -186
-141 -202 -136 -239 3 -20 8 -89 12 -153 l6 -117 170 -216 171 -216 -2 -162
c-2 -162 -12 -292 -32 -421 l-11 -68 -67 -29 -66 -30 -37 -152 c-42 -175 -85
-269 -137 -304 -19 -13 -42 -22 -50 -21 -8 2 -34 48 -58 103 -23 54 -54 110
-67 124 l-25 24 -108 -70 c-150 -98 -150 -97 -156 -70 -3 12 -18 137 -32 277
-14 140 -28 264 -30 276 -3 15 -16 24 -47 30 l-43 9 3 48 c4 45 3 47 -23 47
-19 0 -26 4 -22 14 3 8 -3 22 -13 31 -40 36 -63 122 -68 251 -2 67 0 143 5
170 6 29 7 118 3 214 -3 91 -7 159 -8 153 -1 -7 -35 -86 -76 -176 -91 -202
-100 -228 -137 -400 l-29 -138 34 -337 c70 -673 139 -1555 207 -2652 l31 -505
163 -220 c90 -121 192 -258 227 -304 l63 -85 130 -57 130 -57 342 -38 342 -38
223 135 223 136 3 49 2 49 -177 104 -178 103 -94 194 c-52 107 -97 194 -101
194 -3 0 -19 -101 -35 -225 -15 -123 -32 -229 -36 -236 -21 -34 -107 28 -146
105 -26 51 -103 269 -103 290 0 6 -40 49 -90 96 l-90 85 -55 455 -54 455 -72
215 c-72 218 -122 409 -134 512 -7 52 -5 60 25 102 l31 46 60 -71 c32 -39 59
-76 59 -82 0 -24 70 -456 91 -557 29 -145 25 -140 114 -140 41 0 75 3 75 6 0
4 -20 44 -45 90 -25 45 -45 86 -45 91 0 5 17 16 38 23 20 8 78 35 128 61 l91
47 158 -19 c87 -11 159 -18 161 -16 2 2 -23 47 -56 101 l-60 99 0 93 0 94 255
400 255 399 0 113 c-1 152 -15 436 -37 702 l-17 220 149 144 150 144 142 69
142 69 145 0 145 0 58 -66 c57 -64 59 -69 90 -192 l32 -127 1 -300 c0 -269 -3
-317 -25 -465 -56 -376 -101 -575 -195 -865 -60 -182 -245 -687 -346 -940 -47
-118 -48 -122 -48 -230 0 -63 8 -158 18 -221 19 -107 19 -111 1 -158 l-19 -48
-50 53 c-28 30 -101 107 -163 172 l-112 118 -148 9 c-128 8 -374 34 -537 56
-44 6 -48 5 -43 -12 3 -10 11 -39 17 -64 6 -25 13 -53 16 -62 4 -14 -1 -18
-25 -18 -17 0 -31 -2 -31 -5 0 -3 27 -42 60 -87 l59 -83 -29 -25 -30 -25 52
-87 52 -88 33 54 33 54 118 8 c64 4 146 8 182 8 l65 1 18 -37 c10 -21 27 -101
38 -185 11 -81 22 -162 25 -180 3 -19 28 -60 61 -101 l57 -70 58 41 c195 139
208 147 213 135 2 -7 34 -150 70 -317 l67 -304 129 -316 129 -315 0 -160 0
-159 -86 -361 -86 -360 10 -108 c5 -60 11 -111 14 -114 4 -3 57 -14 120 -24
l113 -18 50 -54 c31 -34 70 -94 103 -160 51 -105 52 -108 52 -198 l0 -92 -27
7 c-39 9 -41 12 -67 111 -58 213 -108 314 -157 314 -26 0 -25 -42 2 -139 50
-181 241 -615 281 -640 72 -46 158 -115 186 -149 31 -40 31 -41 17 -81 l-14
-41 130 -185 130 -185 28 -618 28 -617 -232 -345 c-216 -321 -238 -359 -330
-555 l-98 -209 -18 -165 c-11 -105 -15 -171 -9 -182 29 -54 267 -232 372 -279
47 -20 238 -58 428 -85 180 -25 470 -43 785 -50 l290 -7 163 35 c143 31 172
41 248 83 47 27 88 56 91 64 3 8 18 44 34 80 25 58 33 104 70 425 l41 361
-170 344 c-94 190 -190 378 -215 419 l-44 74 39 99 c52 133 64 236 48 418 -11
129 -20 171 -56 256 -14 32 -17 35 -26 21 -7 -13 -1 -39 23 -97 36 -92 36
-120 -6 -340 -13 -69 -27 -169 -31 -222 -4 -54 -10 -98 -14 -98 -5 0 -20 13
-33 30 -14 16 -28 30 -31 30 -3 0 -6 -16 -6 -35 0 -34 -1 -35 -41 -35 l-41 0
50 -56 c90 -101 146 -230 158 -362 l7 -77 103 -152 104 -152 0 -126 0 -125
-60 0 -60 0 0 -59 0 -58 -42 -6 c-31 -4 -51 -16 -81 -46 l-40 -40 -88 45 c-83
41 -94 44 -169 44 l-81 0 32 -40 c18 -22 30 -42 28 -43 -2 -2 -56 -9 -119 -16
-170 -18 -161 -14 -199 -83 -18 -33 -29 -58 -25 -55 5 2 39 23 76 46 37 22 84
47 103 56 l36 14 67 -51 c120 -93 192 -160 192 -178 0 -16 -16 -19 -147 -26
-171 -9 -248 -9 -337 1 l-63 6 -7 97 -7 97 65 62 c62 59 66 66 66 107 l0 43
-87 -15 c-58 -10 -156 -16 -288 -16 -191 -1 -212 1 -450 41 -215 37 -259 47
-311 75 l-62 32 -60 -27 c-33 -15 -67 -27 -76 -27 -47 0 4 87 177 304 69 87
132 175 138 195 12 39 77 157 144 261 37 58 54 72 138 123 94 57 97 61 165
165 85 130 142 233 142 255 0 21 -5 21 -104 2 -44 -8 -80 -14 -82 -13 -1 2 27
39 63 83 36 44 100 132 143 195 68 102 82 117 121 131 24 9 43 21 42 26 -17
84 -69 589 -88 863 -7 90 -10 99 -51 164 -44 69 -44 70 -44 162 0 87 2 93 25
111 l24 18 -13 89 -13 89 36 109 c31 93 38 108 57 108 16 0 26 -11 38 -40 9
-22 16 -47 16 -56 0 -8 20 -23 45 -34 54 -23 123 -70 177 -118 l38 -34 0 -154
0 -153 139 -128 140 -128 0 -99 1 -98 33 6 c17 3 42 8 54 10 32 6 43 15 43 35
0 10 -25 87 -55 170 l-54 151 20 121 c10 67 39 201 64 300 43 172 45 184 45
329 0 149 0 151 -30 204 l-30 53 48 20 48 20 57 129 c70 159 82 226 74 421 -5
115 -12 164 -38 265 l-32 123 -136 174 -135 175 -18 130 c-9 72 -18 165 -18
206 l0 74 -43 -42 c-23 -23 -46 -42 -51 -42 -4 0 -27 -13 -51 -30 -47 -33
-106 -49 -176 -50 -32 0 -51 -6 -63 -19 -17 -19 -15 -41 3 -41 5 0 25 -7 44
-15 l36 -15 -49 -46 c-27 -26 -55 -61 -61 -79 -11 -30 -22 -36 -133 -79 -118
-45 -127 -47 -300 -61 -99 -8 -181 -16 -183 -18 -1 -2 -9 -21 -16 -43 l-14
-39 -86 -3 -86 -3 16 -46 16 -47 -60 -56 c-34 -33 -73 -60 -90 -63 -17 -3 -64
-31 -104 -61 -41 -31 -77 -56 -81 -56 -3 0 -9 23 -13 52 -8 54 0 67 52 97 12
6 12 16 -1 68 -9 34 -16 67 -16 74 1 8 37 32 80 53 44 22 80 42 80 45 0 4 -54
34 -121 66 -101 50 -131 70 -177 120 l-56 60 34 3 c39 4 87 -13 232 -81 89
-41 110 -48 123 -37 48 40 -7 75 -237 151 -73 24 -134 45 -136 45 -2 1 -12
103 -22 226 l-18 223 -62 180 c-56 166 -61 185 -55 241 9 101 54 360 69 406
15 42 15 43 -19 87 -31 39 -35 51 -35 105 0 34 -5 154 -10 269 l-10 208 69
137 c66 131 73 140 148 203 43 36 83 68 89 71 13 8 224 -28 446 -76 91 -20
172 -36 179 -36 23 0 -25 41 -151 130 -123 86 -190 144 -190 161 0 13 -1 13
117 -31 60 -23 128 -44 153 -47 l45 -5 -75 76 c-61 62 -70 76 -53 76 64 0 568
-262 598 -311 6 -9 -4 -11 -41 -6 -27 3 -78 9 -114 13 l-65 7 30 -32 c19 -20
43 -34 67 -38 35 -5 46 -15 112 -107 92 -126 149 -216 142 -223 -2 -3 -29 6
-58 20 -50 24 -158 47 -158 34 0 -3 49 -63 109 -132 l109 -127 27 -107 c15
-58 55 -182 87 -276 104 -295 137 -404 164 -539 23 -117 89 -316 104 -316 7 0
53 224 70 335 6 39 20 98 31 132 24 74 118 213 129 192 8 -14 54 -306 86 -539
14 -109 20 -125 106 -315 87 -190 91 -204 96 -282 l4 -82 -117 -143 -117 -143
52 -3 c50 -3 51 -4 35 -22 -15 -17 -13 -22 46 -102 61 -81 89 -133 89 -162 0
-8 -13 -19 -30 -25 l-30 -10 0 -182 c0 -110 7 -233 17 -312 l16 -131 73 -99
c41 -55 72 -103 69 -107 -2 -4 -23 -10 -46 -14 -33 -5 -40 -10 -34 -24 15 -37
43 -161 55 -235 l11 -77 -99 -174 -99 -173 32 -141 c18 -77 41 -189 50 -248
23 -148 19 -141 63 -103 l37 33 12 -155 c11 -149 44 -343 65 -383 6 -11 30
-41 55 -67 l44 -47 -90 -71 -89 -71 -7 -172 -7 -173 -36 -64 -36 -64 18 -151
c13 -108 26 -171 46 -221 15 -38 75 -187 133 -330 58 -143 111 -279 118 -303
12 -40 18 -46 137 -114 l124 -71 270 42 c316 49 668 123 668 140 0 4 -10 17
-22 28 -19 17 -46 23 -143 32 -347 33 -544 58 -558 71 -5 4 22 43 58 86 37 44
105 126 152 182 l86 104 -12 180 c-11 169 -25 238 -49 238 -4 0 -29 -35 -57
-77 -27 -42 -56 -79 -63 -81 -10 -3 -12 23 -11 115 1 66 -2 127 -8 137 -9 16
-12 13 -26 -21 -8 -22 -18 -57 -22 -79 -4 -21 -21 -83 -37 -136 -25 -81 -29
-107 -24 -152 6 -42 13 -58 32 -70 17 -12 24 -26 24 -47 0 -29 -2 -31 -27 -24
-53 12 -58 28 -108 300 -26 143 -51 267 -55 275 -13 22 -19 -69 -24 -375 -5
-270 -24 -467 -46 -489 -15 -15 -23 40 -16 122 10 117 19 658 11 651 -3 -4
-57 -121 -119 -260 -104 -235 -114 -254 -139 -257 -25 -3 -27 -1 -27 38 0 22
12 68 26 103 14 34 45 153 70 265 35 161 43 215 38 260 -4 45 -3 53 6 39 11
-17 13 -16 41 8 26 21 41 25 95 25 59 0 64 -2 64 -21 0 -21 1 -21 25 5 32 35
84 56 136 56 36 0 47 -6 79 -40 20 -22 40 -37 43 -33 4 3 7 34 7 68 0 52 4 65
24 84 l25 23 29 -47 c22 -36 31 -65 36 -119 7 -73 44 -196 59 -196 5 0 40 30
78 67 61 58 69 71 69 102 -1 49 -33 254 -59 372 -21 98 -51 370 -51 465 0 40
-9 73 -36 131 l-35 78 6 -195 c3 -107 8 -248 11 -313 l7 -117 -43 15 c-61 22
-70 20 -70 -15 0 -36 -6 -37 -42 -7 l-28 22 30 134 c16 74 33 143 36 154 5 15
-9 7 -48 -26 -30 -26 -60 -47 -65 -47 -5 0 33 150 84 333 111 390 150 559 159
682 l6 90 -46 25 c-25 13 -46 29 -46 35 0 5 5 47 12 93 9 69 14 82 27 76 76
-30 63 -36 181 87 l108 114 17 88 c10 48 19 87 22 87 2 0 15 -7 28 -16 25 -16
25 -16 25 20 0 20 2 36 4 36 6 0 137 -30 157 -36 12 -3 18 4 23 29 7 35 45 92
130 191 l50 58 -17 102 -16 102 49 165 50 164 0 316 c0 174 4 338 9 366 19 98
61 465 85 739 l25 281 -29 341 c-26 309 -33 363 -76 560 -30 140 -52 222 -63
230 -8 7 -32 17 -51 23 -32 10 -56 4 -228 -51 -186 -60 -195 -64 -258 -118
l-65 -57 162 -5 162 -5 10 -29 c13 -38 -1 -46 -85 -46 l-67 0 52 -49 52 -49
-21 -44 c-12 -24 -70 -106 -128 -182 l-108 -139 33 -26 c18 -14 39 -31 46 -36
9 -7 21 -66 33 -160 30 -229 31 -221 -45 -327 l-65 -91 6 -66 c11 -108 7 -105
119 -116 l98 -10 29 -75 c28 -70 29 -81 23 -170 -4 -55 -11 -98 -18 -102 -17
-11 -65 -10 -130 3 -64 13 -67 19 -42 89 l15 42 -118 55 -117 56 -77 139 -78
139 0 204 0 205 -167 -6 -168 -6 -73 108 c-71 108 -72 110 -72 174 l0 65 66
83 c55 68 78 89 133 117 53 27 89 58 186 161 l120 128 -55 -30 c-192 -107
-207 -114 -253 -114 -26 0 -47 3 -47 8 0 4 45 52 101 107 55 55 119 122 142
149 50 59 52 59 -146 -25 -132 -57 -177 -69 -177 -50 0 5 42 48 93 96 106 100
110 99 -95 39 -65 -19 -120 -34 -123 -34 -15 0 -2 33 25 63 17 19 30 44 30 55
0 18 -4 19 -37 12 -116 -24 -113 -25 -113 14 0 31 7 39 88 98 128 95 253 177
377 250 146 86 266 151 269 147 38 -50 38 -51 -6 -88 -38 -33 -114 -138 -106
-146 2 -3 53 12 113 32 61 19 140 38 178 41 79 6 82 0 42 -86 -14 -30 -25 -56
-25 -59 0 -2 27 26 60 64 53 60 60 73 60 111 l0 43 28 -20 29 -20 76 77 77 77
-53 123 -52 123 -65 -70 -65 -71 -97 -22 -97 -21 -88 19 -88 19 -35 -35 c-20
-19 -112 -80 -205 -135 -203 -120 -257 -156 -310 -205 -41 -38 -75 -60 -94
-60 -7 0 -11 29 -11 78 l0 77 58 36 c77 50 133 77 222 109 l75 28 39 84 38 85
-85 150 -85 151 23 22 23 21 136 -126 135 -126 52 3 52 3 -82 43 -81 43 0 74
0 73 44 29 c24 16 80 40 123 53 71 21 83 28 131 81 48 53 58 59 93 59 36 0 39
-2 39 -28 0 -29 -43 -106 -73 -131 -25 -20 -21 -31 13 -31 29 0 30 -2 30 -44
0 -48 -27 -144 -65 -229 -25 -58 -25 -62 22 -86 16 -8 31 -7 66 6 44 16 45 18
92 131 l48 114 -7 96 c-8 101 -15 144 -43 250 -25 98 -40 97 -202 -18 -172
-121 -172 -116 0 101 123 155 156 199 145 199 -2 0 -48 -38 -101 -85 -54 -47
-102 -85 -107 -85 -19 0 2 61 87 255 47 106 85 197 85 204 0 25 -24 5 -139
-116 -94 -99 -124 -136 -132 -168 -30 -120 -27 -115 -114 -146 -44 -16 -85
-29 -92 -29 -6 0 -17 25 -24 55 -7 31 -16 58 -21 61 -14 9 -47 -6 -52 -24 -7
-19 -95 -78 -166 -111 -27 -13 -182 -47 -380 -85 l-335 -63 -435 38 -435 37
-220 75 -220 76 -65 -14 c-146 -29 -138 -29 -160 7 -11 18 -20 36 -20 41 0 4
20 17 45 29 25 12 45 25 45 29 0 5 -38 66 -83 136 -85 130 -107 170 -168 301
-31 67 -32 73 -17 89 16 15 22 13 92 -33 42 -27 76 -52 76 -57 0 -4 17 -33 38
-64 36 -55 37 -58 34 -137 l-4 -81 169 -83 c161 -79 180 -86 448 -157 276 -72
284 -74 571 -104 161 -17 308 -31 328 -31 20 0 163 36 317 80 292 84 402 129
619 256 123 72 119 67 81 115 l-33 40 46 70 c51 76 52 81 31 132 -14 34 -13
40 6 89 30 77 58 122 178 286 59 81 170 244 245 362 173 269 218 333 259 364
29 22 44 24 187 30 l155 6 75 -66 c225 -199 395 -332 496 -389 50 -28 52 -31
72 -103 11 -41 19 -79 17 -85 -3 -7 -21 -148 -40 -314 l-37 -301 42 -127 41
-127 228 -341 c126 -188 279 -409 340 -491 l112 -149 20 -216 c19 -212 20
-218 61 -314 l42 -98 -39 -72 c-21 -40 -60 -107 -87 -150 -26 -43 -48 -82 -48
-87 0 -4 65 -104 145 -221 134 -197 152 -218 239 -291 l95 -79 33 14 c28 12
36 22 46 63 28 110 123 264 162 264 15 0 21 -12 30 -57 6 -32 22 -100 36 -152
l24 -93 -59 -67 c-76 -85 -147 -151 -163 -151 -18 0 -68 32 -162 102 -170 128
-183 141 -322 329 l-138 186 -70 17 -70 17 -110 -109 -111 -110 -108 -38 -108
-39 7 -40 c15 -93 48 -194 88 -274 l43 -86 54 -12 c29 -6 58 -9 65 -5 35 20
84 75 84 95 0 46 41 215 66 275 29 68 33 70 112 52 57 -14 224 -89 239 -109
40 -51 145 -215 172 -269 36 -72 91 -210 91 -229 0 -7 -43 -73 -95 -145 -91
-125 -96 -135 -93 -177 3 -42 5 -45 43 -58 22 -8 94 -17 160 -20 l120 -6 296
97 296 96 101 75 c97 72 141 117 175 180 11 19 39 177 77 433 l60 403 -20 279
c-18 254 -24 299 -69 512 -93 435 -154 675 -189 744 -16 31 -17 46 -5 172 14
166 19 620 8 867 l-7 180 -165 375 c-163 370 -167 377 -276 533 -81 115 -138
184 -211 255 -100 96 -102 98 -160 230 -33 72 -62 130 -65 127 -5 -6 -40 -289
-40 -336 -1 -44 94 -137 233 -228 121 -79 126 -84 171 -161 25 -43 61 -123 78
-177 24 -73 44 -113 80 -159 43 -55 58 -91 147 -345 l100 -284 16 -405 c8
-223 13 -434 11 -470 -2 -40 -22 -122 -51 -215 -26 -82 -63 -201 -82 -264
l-35 -113 -26 23 c-29 28 -54 74 -99 184 -17 43 -36 81 -42 83 -12 4 -28 -128
-51 -426 l-18 -233 -53 -77 c-118 -170 -124 -176 -223 -234 l-95 -56 -6 82
c-3 44 -8 247 -11 449 l-6 368 38 -3 c35 -3 39 -7 53 -45 16 -48 20 -50 55
-27 l25 16 0 215 0 215 -31 58 c-45 84 -77 112 -139 118 -59 5 -55 24 -36
-190 11 -130 11 -138 -6 -138 -21 0 -68 39 -190 159 -72 70 -88 91 -88 116 0
47 -26 145 -80 306 l-50 147 0 213 0 213 -30 31 -31 32 26 194 c65 482 88 601
155 804 43 131 51 169 63 300 8 83 13 152 11 154 -2 2 -50 -41 -107 -97 l-102
-101 -105 -26 c-135 -33 -271 -55 -337 -55 -51 0 -53 1 -53 28 0 41 -27 126
-49 153 l-19 23 -43 -35 -44 -36 -81 63 -82 64 -68 0 -68 0 58 43 58 42 -51 5
c-44 4 -54 10 -88 49 -36 42 -36 45 -18 57 61 41 66 25 -55 203 -61 90 -109
165 -108 166 24 21 368 72 715 106 l122 12 153 -68 c141 -62 158 -73 209 -129
l56 -60 7 244 c6 189 4 277 -8 384 l-15 139 -67 116 c-123 213 -264 421 -373
549 -118 137 -383 273 -1057 542 -136 54 -251 112 -479 238 -328 181 -331 182
-470 167 l-66 -7 138 -68 c76 -37 224 -115 330 -172 l192 -104 154 -146 153
-146 64 -7 c135 -14 328 -46 416 -69 73 -19 115 -38 215 -98 163 -99 262 -148
298 -148 26 0 35 -10 90 -98 68 -111 100 -178 128 -273 l20 -67 -71 -59 c-106
-89 -170 -135 -278 -201 l-98 -59 -122 28 c-68 16 -133 31 -144 34 -17 4 -23
15 -29 52 -4 26 -20 77 -37 113 l-29 67 -182 41 c-218 50 -305 65 -323 58 -12
-4 -14 -68 -14 -370 l0 -364 -57 -50 c-134 -115 -394 -294 -588 -405 -112 -64
-190 -77 -471 -78 l-219 0 253 -49 c140 -27 293 -58 340 -70 48 -12 96 -24
107 -26 15 -4 48 20 122 85 57 49 107 92 113 96 5 3 21 -12 35 -34 25 -40 25
-44 25 -236 l0 -196 -75 -88 c-68 -79 -80 -89 -117 -94 -61 -8 -139 -88 -163
-168 l-18 -59 42 -92 c23 -51 41 -104 41 -118 -1 -14 -25 -92 -54 -173 l-53
-149 25 -9 c32 -12 38 -6 125 131 36 58 78 119 92 135 l26 30 -6 -44 c-13 -99
-120 -347 -165 -385 -32 -26 -177 -102 -263 -137 -56 -22 -61 -28 -110 -110
-29 -48 -59 -87 -67 -88 -8 0 -44 -7 -80 -15 -36 -9 -76 -16 -90 -16 -15 0
-64 -30 -125 -75 -114 -85 -152 -94 -202 -51 l-28 24 32 65 c35 71 26 66 153
88 36 6 90 17 120 25 30 8 78 14 107 14 l53 0 30 60 c16 33 30 72 30 87 0 22
16 43 80 103 l81 75 -15 35 c-14 34 -14 36 15 66 l30 31 -203 68 c-112 37
-211 72 -221 77 -12 6 -45 -2 -114 -27 -58 -22 -122 -39 -163 -42 -65 -5 -68
-7 -74 -34 -9 -47 -64 -35 -167 36 -53 36 -55 37 -129 32 -41 -3 -131 -12
-200 -20 -69 -9 -165 -18 -213 -22 l-88 -6 3 33 c3 31 8 34 118 84 105 48 124
54 224 63 99 9 113 8 146 -9 19 -10 42 -30 50 -44 18 -35 25 -33 54 13 21 33
33 41 90 56 69 19 101 17 216 -9 36 -8 131 -18 212 -22 l146 -7 56 32 c31 17
60 31 66 31 5 0 52 -27 103 -60 88 -56 98 -60 154 -60 42 0 62 4 66 14 13 33
19 116 21 268 l1 164 54 80 c30 43 99 133 153 198 99 121 119 161 76 151 -13
-3 -108 -21 -213 -41 -171 -32 -200 -35 -295 -29 -173 11 -201 9 -300 -14 -52
-13 -102 -25 -110 -28 -8 -2 20 -16 63 -30 122 -41 221 -94 225 -120 3 -21 -1
-23 -42 -23 -25 0 -46 -3 -46 -6 0 -3 14 -23 32 -45 34 -42 34 -42 -12 -68 -9
-5 -101 5 -232 26 l-217 35 -38 -31 c-21 -17 -45 -31 -55 -31 -10 0 -75 24
-145 54 -165 70 -181 72 -242 40 -52 -27 -190 -58 -307 -69 -58 -6 -72 -11
-80 -29 -5 -12 -50 -42 -109 -73 -96 -50 -103 -52 -182 -53 l-82 0 -53 60
c-29 33 -56 68 -59 78 -9 24 21 62 94 121 58 46 76 53 234 99 l170 50 202 3
202 3 26 -40 c14 -21 28 -41 29 -43 2 -2 33 19 70 48 43 33 89 58 130 71 59
18 70 18 171 6 59 -8 109 -12 111 -11 7 6 -163 148 -192 160 -17 8 -101 29
-186 46 l-154 32 -166 -18 c-158 -16 -173 -20 -344 -82 -173 -62 -181 -64
-245 -57 -36 4 -75 10 -86 14 -18 7 -18 8 5 20 80 43 373 244 359 247 -9 2
-135 -21 -280 -52 l-264 -56 -105 16 c-197 30 -335 56 -446 85 -116 30 -255
81 -289 106 -19 14 -19 15 3 36 l22 22 152 -37 c290 -70 522 -110 698 -122 91
-7 99 -5 178 25 l82 32 0 49 0 49 64 0 c93 0 255 56 331 114 19 14 18 15 -15
10 -170 -22 -232 -28 -347 -31 l-132 -4 14 40 14 40 -42 5 c-103 13 -329 27
-520 33 l-209 6 34 32 c32 32 40 34 253 68 209 34 391 57 457 57 31 0 33 -5
13 -52 -7 -17 10 -18 269 -18 l276 0 0 -23 c0 -15 11 -28 34 -41 19 -10 49
-33 67 -52 l32 -33 -53 -60 c-47 -55 -50 -61 -29 -61 12 0 43 17 68 38 25 21
51 42 58 46 18 10 101 -17 336 -110 143 -57 230 -87 267 -90 l55 -5 -50 20
c-54 22 -92 58 -77 73 5 5 27 14 48 18 44 10 425 43 704 61 l185 12 47 39 c59
49 139 90 245 124 79 26 86 31 198 138 82 80 115 118 115 135 0 22 -3 23 -45
17 -56 -9 -158 -44 -248 -86 -38 -17 -125 -46 -193 -65 -68 -19 -166 -47 -217
-64 -50 -16 -141 -39 -202 -51 -101 -21 -128 -22 -335 -17 -211 6 -234 8 -371
41 -182 43 -239 68 -239 105 1 14 16 193 33 397 l33 371 33 41 c32 42 33 42
99 42 63 0 70 3 134 47 67 46 68 47 68 92 0 43 6 54 86 154 83 103 87 107 125
107 21 0 39 3 39 7 0 4 -30 38 -67 75 -57 57 -65 69 -53 82 7 9 16 16 21 16 5
0 54 -19 110 -42 92 -38 103 -45 116 -77 8 -20 16 -37 17 -38 1 -2 47 10 101
26 90 25 100 31 112 58 l12 31 -167 72 c-92 40 -168 74 -170 75 -1 1 13 22 33
45 l36 43 -38 39 c-43 45 -176 152 -275 222 l-68 48 0 -109 c0 -114 -13 -168
-93 -373 -32 -82 -211 -491 -223 -508 -4 -6 -369 141 -384 155 -3 3 24 31 60
63 l65 59 -84 -19 -84 -18 7 59 c3 33 10 69 16 79 13 24 71 55 133 71 41 10
50 9 86 -12 45 -25 49 -35 26 -65 -25 -33 -17 -34 43 -5 31 16 81 37 110 47
28 10 52 21 52 24 0 4 -26 24 -58 47 -54 38 -62 41 -142 45 -54 3 -97 11 -119
22 -32 17 -33 20 -27 59 4 23 20 61 36 85 l30 42 -64 0 -64 0 -16 43 c-16 41
-16 43 17 131 l34 89 56 -70 c53 -67 59 -71 189 -131 74 -34 139 -62 146 -62
6 0 1 16 -13 36 -27 40 -62 146 -70 215 -4 24 0 77 8 117 l15 72 -32 -19 c-17
-10 -49 -25 -72 -31 -40 -12 -43 -11 -93 25 -28 21 -50 39 -48 41 9 10 210
104 220 104 7 0 21 -15 31 -34 34 -64 98 -123 150 -140 66 -21 66 -21 66 20 0
30 3 35 17 30 59 -23 99 -18 176 19 l77 38 53 -34 c96 -63 141 -74 171 -41 15
17 15 22 2 54 -12 27 -33 46 -87 78 l-71 42 -130 -17 c-120 -16 -130 -16 -141
-1 -11 15 -17 13 -54 -19 -23 -19 -45 -35 -50 -35 -6 0 -26 24 -47 54 -36 52
-38 60 -58 219 l-21 164 37 46 37 45 -21 130 c-11 72 -20 135 -20 140 0 5 -40
38 -90 72 -88 62 -89 64 -92 108 l-3 45 -90 48 -90 49 -281 0 -281 0 -34 -33z" />
    <path
      d="M6220 13164 c-167 -60 -179 -63 -270 -63 l-95 -1 45 -30 c44 -29 47
-30 179 -30 133 0 134 0 195 34 60 32 66 34 271 50 115 10 211 18 212 19 1 1
-6 12 -15 25 -16 20 -35 25 -177 42 -88 11 -162 19 -165 19 -3 -1 -84 -30
-180 -65z" />
    <path
      d="M4493 1958 l-33 -11 1 -71 c0 -39 4 -98 9 -131 4 -33 4 -107 -1 -165
-5 -58 -13 -209 -17 -336 l-7 -231 -29 -42 c-32 -46 -31 -56 6 -42 36 14 43
28 61 126 31 172 40 283 33 439 -4 83 -7 160 -8 171 -3 81 18 237 39 291 6 16
-8 17 -54 2z" />
    <path
      d="M4222 1858 c-16 -29 -132 -240 -257 -468 -125 -228 -241 -433 -256
-454 -38 -53 -39 -92 -2 -68 13 8 184 312 355 632 119 221 161 292 214 357 19
23 34 44 34 47 0 3 -13 6 -29 6 -25 0 -34 -8 -59 -52z" />
    <path
      d="M3574 1168 c-78 -82 -132 -149 -134 -168 -5 -34 0 -41 27 -38 23 3
37 22 99 136 40 72 71 132 70 132 -2 0 -30 -28 -62 -62z" />
  </g>
</svg>