<svg xmlns="http://www.w3.org/2000/svg" viewBox="0 0 100 100" width="50px" height="50px">
  <path fill="#fff"
    d="M 52.3125 4.296875 C 51.740891 4.2999961 51.16727 4.3112521 50.591797 4.3320312 C 41.384232 4.6644986 31.714913 7.3216005 24.716797 12.666016 A 2.0002 2.0002 0 0 0 23.962891 13.898438 L 20.085938 35.291016 L 15.464844 38.496094 A 2.0002 2.0002 0 0 0 14.605469 40.214844 L 15.173828 55.183594 A 2.0002 2.0002 0 0 0 16.291016 56.902344 L 21.101562 59.265625 A 2.0002 2.0002 0 0 0 21.507812 59.603516 L 25.386719 75.667969 A 2.0002 2.0002 0 0 0 25.822266 76.513672 L 39.15625 91.796875 A 2.0002 2.0002 0 0 0 40.646484 92.482422 L 60.003906 92.646484 A 2.0002 2.0002 0 0 0 61.466797 92.027344 L 77.833984 74.882812 A 2.0002 2.0002 0 0 0 78.388672 73.472656 L 78.166016 58.080078 L 78.259766 57.998047 L 83.417969 53.826172 A 2.0002 2.0002 0 0 0 84.046875 52.972656 L 84.775391 52.339844 A 2.0002 2.0002 0 0 0 85.464844 50.804688 L 85.291016 37.082031 A 2.0002 2.0002 0 0 0 84.263672 35.361328 L 79.402344 32.650391 C 79.14627 31.379612 77.230969 21.925758 75.283203 14.4375 A 1.0003633 1.0003633 0 0 0 75.064453 13.625 C 74.883845 12.945807 74.702253 12.253597 74.523438 11.623047 A 2.0002 2.0002 0 0 0 73.933594 10.679688 C 68.941571 6.2061083 60.88663 4.2500582 52.3125 4.296875 z M 52.28125 8.2988281 C 59.964298 8.2788462 66.976428 10.188695 70.837891 13.382812 C 70.853538 13.439318 70.869072 13.507426 70.884766 13.564453 L 57.400391 14.746094 A 1.0001 1.0001 0 0 0 56.492188 15.644531 L 54.988281 30.755859 L 45.916016 31.476562 L 43.060547 16.085938 A 1.0001 1.0001 0 0 0 42.134766 15.269531 L 29.144531 14.535156 C 35.095762 10.745036 43.081692 8.604519 50.736328 8.328125 C 51.253759 8.3094416 51.769047 8.3001603 52.28125 8.2988281 z M 53.142578 12.992188 A 1.0001 1.0001 0 0 0 53.070312 12.994141 L 47.267578 13.246094 A 1.0001 1.0001 0 1 0 47.353516 15.244141 L 53.158203 14.992188 A 1.0001 1.0001 0 0 0 53.142578 12.992188 z M 71.402344 15.525391 C 71.745875 16.849071 72.09005 18.224096 72.431641 19.652344 L 70.4375 33.941406 L 60.746094 35.900391 A 1.0003091 1.0003091 0 0 0 61.142578 37.861328 L 70.144531 36.041016 L 69.904297 37.763672 L 59.162109 39.966797 A 1.0001 1.0001 0 1 0 59.564453 41.925781 L 69.611328 39.867188 L 69.363281 41.638672 C 57.15635 44.696737 44.270145 44.910348 30.666016 42.259766 L 26.722656 21.095703 L 27.564453 16.447266 L 41.238281 17.222656 L 44.115234 32.726562 A 1.0001 1.0001 0 0 0 45.177734 33.541016 L 55.978516 32.683594 A 1.0001 1.0001 0 0 0 56.894531 31.785156 L 58.400391 16.666016 L 71.402344 15.525391 z M 52.232422 18.371094 A 1.0001 1.0001 0 0 0 52.164062 18.378906 L 47.634766 18.882812 A 1.0002469 1.0002469 0 1 0 47.855469 20.871094 L 52.384766 20.365234 A 1.0001 1.0001 0 0 0 52.232422 18.371094 z M 52.179688 23.921875 L 47.933594 24.039062 A 1.0004009 1.0004009 0 0 0 47.990234 26.039062 L 52.236328 25.921875 A 1.0004009 1.0004009 0 0 0 52.179688 23.921875 z M 73.6875 25.126953 C 74.808658 30.146641 75.671875 34.347656 75.671875 34.347656 A 2.0002 2.0002 0 0 0 76.658203 35.701172 L 81.306641 38.291016 L 81.453125 49.927734 L 75.673828 54.945312 L 73.861328 56.412109 L 71.685547 52.091797 A 1.0001 1.0001 0 0 0 70.804688 51.529297 A 1.0001 1.0001 0 0 0 69.900391 52.990234 L 72.269531 57.699219 L 71.083984 58.658203 L 67.822266 52.9375 A 1.0001 1.0001 0 0 0 66.912109 52.421875 A 1.0001 1.0001 0 0 0 66.083984 53.927734 L 69.507812 59.933594 L 66.609375 62.277344 A 2.0002 2.0002 0 0 0 65.994141 63.130859 L 63.308594 70.302734 L 61.164062 67.521484 A 2.0002 2.0002 0 0 0 59.578125 66.742188 L 42.720703 66.757812 A 2.0002 2.0002 0 0 0 41.267578 67.386719 L 39.154297 69.628906 L 37.277344 63.433594 A 2.0002 2.0002 0 0 0 37.21875 63.267578 L 39.175781 55.720703 A 1.0001 1.0001 0 0 0 38.25 54.455078 A 1.0001 1.0001 0 0 0 37.238281 55.21875 L 35.515625 61.869141 L 33.875 61.087891 L 36.001953 54.318359 A 1.0001 1.0001 0 0 0 35.041016 53.005859 A 1.0001 1.0001 0 0 0 34.09375 53.71875 L 32.052734 60.216797 L 24.630859 56.677734 A 2.0002 2.0002 0 0 0 24.076172 56.271484 L 19.126953 53.839844 L 18.644531 41.158203 L 23.046875 38.105469 A 2.0002 2.0002 0 0 0 23.873047 36.818359 L 25.71875 26.632812 L 28.710938 42.685547 A 1.0001 1.0001 0 0 0 28.582031 42.947266 L 26.757812 48.427734 A 1.0001 1.0001 0 0 0 27.648438 49.742188 L 43.421875 50.658203 A 1.0001 1.0001 0 0 0 44.308594 50.216797 L 46.996094 46.224609 A 1.0001 1.0001 0 0 0 47.070312 46.103516 C 49.05401 46.148505 51.02476 46.13533 52.978516 46.050781 L 54.746094 50.675781 A 1.0001 1.0001 0 0 0 55.800781 51.3125 L 71.886719 49.359375 A 1.0001 1.0001 0 0 0 72.761719 48.283203 L 72.244141 42.115234 A 1.0001 1.0001 0 0 0 71.445312 41.203125 L 73.6875 25.126953 z M 39.335938 30.441406 C 38.771938 30.522406 38.379937 31.047281 38.460938 31.613281 C 38.541937 32.178281 39.064906 32.571234 39.628906 32.490234 C 40.192906 32.408234 40.584906 31.883359 40.503906 31.318359 C 40.422906 30.753359 39.899938 30.360406 39.335938 30.441406 z M 34.861328 33.728516 C 34.297328 33.809516 33.905328 34.335391 33.986328 34.900391 C 34.067328 35.465391 34.59225 35.858344 35.15625 35.777344 C 35.72025 35.696344 36.11225 35.170469 36.03125 34.605469 C 35.95025 34.040469 35.425328 33.647516 34.861328 33.728516 z M 41.552734 37.013672 C 40.988734 37.094672 40.596734 37.619547 40.677734 38.185547 C 40.758734 38.750547 41.283656 39.1435 41.847656 39.0625 C 42.411656 38.9815 42.803656 38.455625 42.722656 37.890625 C 42.641656 37.324625 42.116734 36.931672 41.552734 37.013672 z M 70.353516 43.486328 L 70.689453 47.490234 L 56.335938 49.232422 L 55.074219 45.929688 C 60.276057 45.578864 65.370211 44.767334 70.353516 43.486328 z M 30.257812 44.244141 C 35.162278 45.201172 39.984131 45.793708 44.722656 46.021484 L 42.96875 48.626953 L 29.068359 47.820312 L 30.257812 44.244141 z M 58.0625 59.683594 C 57.4985 59.764594 57.1065 60.289469 57.1875 60.855469 C 57.2685 61.420469 57.791469 61.814422 58.355469 61.732422 C 58.919469 61.650422 59.311469 61.125547 59.230469 60.560547 C 59.149469 59.995547 58.6265 59.602594 58.0625 59.683594 z M 74.210938 61.273438 L 74.292969 66.939453 L 72.355469 65.832031 A 1.0001 1.0001 0 0 0 71.880859 65.693359 A 1.0001 1.0001 0 0 0 71.363281 67.568359 L 74.326172 69.261719 L 74.361328 71.603516 L 71.710938 69.673828 A 1.0001 1.0001 0 0 0 71.154297 69.474609 A 1.0001 1.0001 0 0 0 70.533203 71.291016 L 73.599609 73.525391 L 60.828125 86.90625 L 59.035156 81.574219 A 1.0001 1.0001 0 0 0 58.042969 80.880859 A 1.0001 1.0001 0 0 0 57.138672 82.212891 L 59.246094 88.474609 A 1.0001 1.0001 0 0 0 59.269531 88.539062 L 59.171875 88.640625 L 56.71875 88.619141 A 1.0001 1.0001 0 0 0 56.677734 88.363281 L 54.333984 79.564453 A 1.0001 1.0001 0 0 0 53.388672 78.808594 A 1.0001 1.0001 0 0 0 52.402344 80.080078 L 54.673828 88.601562 L 41.580078 88.490234 L 40.611328 87.380859 L 44.261719 81.185547 A 1.0001 1.0001 0 0 0 43.423828 79.666016 A 1.0001 1.0001 0 0 0 42.539062 80.169922 L 39.226562 85.792969 L 38.019531 84.410156 L 41.269531 79.650391 A 1.0001 1.0001 0 0 0 40.435547 78.074219 A 1.0001 1.0001 0 0 0 39.617188 78.521484 L 36.660156 82.851562 L 29.160156 74.253906 L 28.359375 70.939453 L 32.949219 71.197266 A 1.0001 1.0001 0 1 0 33.0625 69.201172 L 27.869141 68.908203 L 27.203125 66.154297 L 31.302734 67.316406 A 1.0001 1.0001 0 1 0 31.847656 65.392578 L 26.925781 63.996094 A 1.0001 1.0001 0 0 0 26.673828 63.955078 L 26.162109 61.839844 L 33.705078 65.4375 L 36.328125 74.095703 A 2.0002 2.0002 0 0 0 39.697266 74.886719 L 43.587891 70.755859 L 58.597656 70.742188 L 62.333984 75.59375 A 2.0002 2.0002 0 0 0 65.791016 75.074219 L 69.548828 65.044922 L 74.210938 61.273438 z M 53.589844 62.970703 C 53.025844 63.051703 52.633844 63.577578 52.714844 64.142578 C 52.795844 64.707578 53.318812 65.100531 53.882812 65.019531 C 54.446813 64.938531 54.838812 64.413656 54.757812 63.847656 C 54.676813 63.282656 54.153844 62.889703 53.589844 62.970703 z" />
</svg>